# Blender 3.1.0
# www.blender.org
mtllib Grenade.mtl
o Cube
v -1.000000 -1.168014 1.000000
v -1.000000 1.168014 1.000000
v 1.000000 1.168014 1.000000
v 1.000000 1.168014 -1.000000
v -1.000000 1.168014 -1.000000
v 1.000000 -0.584493 -1.000000
v -0.807374 0.000000 0.807374
v -0.807374 0.000000 -0.807374
v 0.807374 0.000000 0.807374
v 0.807374 0.000000 -0.807374
v 0.267804 1.727028 -0.267804
v 0.739301 -1.727028 -0.739301
v 0.267804 1.727028 0.267804
v 0.739301 -1.727028 0.739301
v 1.000000 -0.584493 1.000000
v -1.000000 -0.584493 1.000000
v -0.267804 1.727028 -0.267804
v -0.739301 -1.727028 -0.739301
v -0.267804 1.727028 0.267804
v -0.739301 -1.727028 0.739301
v 1.000000 -1.168014 -1.000000
v 1.000000 -1.168014 1.000000
v -1.000000 -1.168014 -1.000000
v -1.000000 -0.584493 -1.000000
v -1.000000 0.584007 1.000000
v -1.000000 0.584007 -1.000000
v 1.000000 0.584007 -1.000000
v 1.000000 0.584007 1.000000
v 0.398838 2.790760 -0.398838
v 0.398838 2.790760 0.398838
v -0.398838 2.790760 -0.398838
v -0.398838 2.790760 0.398838
vn -0.9925 -0.1223 -0.0000
vn 0.6068 0.7948 -0.0000
vn -0.6068 0.7948 -0.0000
vn -0.0000 0.3130 -0.9498
vn -0.9498 0.3130 -0.0000
vn -0.0000 -1.0000 -0.0000
vn 0.9498 0.3130 -0.0000
vn -0.0000 0.7948 0.6068
vn -0.0000 0.7948 -0.6068
vn -0.0000 0.3130 0.9498
vn -0.0000 -0.0000 -1.0000
vn -0.0000 -0.0000 1.0000
vn -1.0000 -0.0000 -0.0000
vn 1.0000 -0.0000 -0.0000
vn -0.0000 -0.4227 0.9063
vn 0.9063 -0.4227 -0.0000
vn -0.9063 -0.4227 -0.0000
vn -0.0000 -0.4227 -0.9063
vn 0.9497 -0.3132 -0.0000
vn -0.9497 -0.3132 -0.0000
vn -0.0000 -0.3132 0.9497
vn -0.0000 -0.3132 -0.9497
vn -0.0000 1.0000 -0.0000
vn -0.0000 -0.1223 -0.9925
vn 0.9925 -0.1223 -0.0000
vn -0.0000 -0.1223 0.9925
vt 0.187500 0.750000
vt 0.437500 0.500000
vt 0.312500 0.750000
vt 0.562500 0.500000
vt 0.312500 0.500000
vt 0.562500 0.500000
vt 0.812500 0.750000
vt 0.562500 0.250000
vt 0.812500 0.500000
vt 0.562500 0.750000
vt 0.468724 0.250000
vt 0.718724 0.750000
vt 0.500000 0.500000
vt 0.250000 0.750000
vt 0.500000 0.750000
vt 0.750000 0.500000
vt 0.500000 0.500000
vt 0.250000 0.500000
vt 0.500000 0.250000
vt 0.750000 0.750000
vt 0.875000 0.750000
vt 0.625000 0.250000
vt 0.375000 0.250000
vt 0.625000 0.750000
vt 0.625000 0.500000
vt 0.375000 0.500000
vt 0.625000 1.000000
vt 0.125000 0.500000
vt 0.375000 0.500000
vt 0.218724 0.500000
vt 0.468724 0.500000
vt 0.218724 0.750000
vt 0.468724 0.500000
vt 0.625000 0.750000
vt 0.875000 0.500000
vt 0.375000 0.750000
vt 0.625000 0.500000
vt 0.625000 0.500000
vt 0.375000 0.750000
vt 0.375000 1.000000
vt 0.125000 0.750000
vt 0.375000 0.500000
vt 0.437500 0.250000
vt 0.687500 0.750000
vt 0.187500 0.500000
vt 0.437500 0.500000
vt 0.437500 0.750000
vt 0.687500 0.500000
vt 0.468724 0.750000
vt 0.718724 0.500000
vt 0.531250 0.500000
vt 0.281250 0.750000
vt 0.531250 0.750000
vt 0.781250 0.500000
vt 0.531250 0.250000
vt 0.781250 0.750000
vt 0.531250 0.500000
vt 0.281250 0.500000
vt 0.375000 0.000000
vt 0.875000 0.750000
vt 0.625000 0.250000
vt 0.375000 0.250000
vt 0.625000 0.500000
vt 0.375000 0.500000
vt 0.625000 0.750000
vt 0.625000 0.000000
vt 0.875000 0.500000
vt 0.625000 0.500000
vt 0.625000 0.250000
vt 0.375000 0.750000
s 0
f 17/34/1 19/38/1 32/68/1 31/65/1
f 4/8/2 11/22/2 13/25/2 3/6/2
f 2/4/3 19/38/3 17/34/3 5/10/3
f 24/50/4 8/16/4 10/20/4 6/12/4
f 16/33/5 7/13/5 8/15/5 24/49/5
f 18/36/6 12/24/6 14/27/6 20/40/6
f 6/11/7 10/19/7 9/17/7 15/31/7
f 3/5/8 13/26/8 19/39/8 2/3/8
f 5/9/9 17/35/9 11/21/9 4/7/9
f 15/30/10 9/18/10 7/14/10 16/32/10
f 26/54/11 5/9/11 4/7/11 27/56/11
f 28/58/12 3/5/12 2/3/12 25/52/12
f 25/51/13 2/4/13 5/10/13 26/53/13
f 27/55/14 4/8/14 3/6/14 28/57/14
f 14/28/15 22/45/15 1/1/15 20/41/15
f 12/23/16 21/43/16 22/46/16 14/29/16
f 20/42/17 1/2/17 23/47/17 18/36/17
f 18/37/18 23/48/18 21/44/18 12/24/18
f 22/45/12 15/30/12 16/32/12 1/1/12
f 21/43/14 6/11/14 15/31/14 22/46/14
f 1/2/13 16/33/13 24/49/13 23/47/13
f 23/48/11 24/50/11 6/12/11 21/44/11
f 10/19/19 27/55/19 28/57/19 9/17/19
f 7/13/20 25/51/20 26/53/20 8/15/20
f 9/18/21 28/58/21 25/52/21 7/14/21
f 8/16/22 26/54/22 27/56/22 10/20/22
f 29/59/23 31/66/23 32/69/23 30/62/23
f 11/21/24 17/35/24 31/67/24 29/60/24
f 13/25/25 11/22/25 29/61/25 30/63/25
f 19/39/26 13/26/26 30/64/26 32/70/26
